<?xml version="1.0" encoding="utf-8"?>
<!-- Generator: Adobe Illustrator 16.0.0, SVG Export Plug-In . SVG Version: 6.00 Build 0)  -->
<!DOCTYPE svg PUBLIC "-//W3C//DTD SVG 1.1//EN" "http://www.w3.org/Graphics/SVG/1.1/DTD/svg11.dtd">
<svg version="1.1" id="Layer_1" xmlns="http://www.w3.org/2000/svg" xmlns:xlink="http://www.w3.org/1999/xlink" x="0px" y="0px"
	 width="639.098px" height="132.182px" viewBox="0 0 639.098 132.182" enable-background="new 0 0 639.098 132.182"
	 xml:space="preserve">
<g>
	<g id="Mark">
		<path fill-rule="evenodd" clip-rule="evenodd" fill="#FFC800" d="M0,81.809V63.522V42.84c0-11.053,6.556-20.574,15.991-24.89
			L31.616,8.93l-0.028-0.045l15.386-8.883c4.49,7.958,7.057,17.146,7.057,26.934c0,2.921-0.231,5.79-0.672,8.587
			C41.8,39.575,33.512,50.58,33.512,63.522c0,1.967,0.192,3.887,0.557,5.746C24.784,76.937,12.935,81.611,0,81.809z"/>
		<path fill-rule="evenodd" clip-rule="evenodd" fill="#5BDC96" d="M79.381,0l15.386,8.884c0.48,0.277,0.946,0.569,1.404,0.873
			l16.399,9.468c8.757,5.033,13.661,14.192,13.671,23.616h0.113v20.682v18.286c-12.935-0.197-24.784-4.872-34.07-12.54
			c0.365-1.859,0.559-3.779,0.559-5.746c0-12.942-8.29-23.947-19.847-28.001c-0.441-2.797-0.672-5.666-0.672-8.587
			C72.325,17.146,74.891,7.958,79.381,0z"/>
		<path fill-rule="evenodd" clip-rule="evenodd" fill="#34C8FF" d="M109.96,109.329l-15.22,8.787l0.028,0.045l-17.912,10.34
			c-8.878,5.145-19.448,4.722-27.677-0.183l-17.591-10.157c-0.48-0.278-0.946-0.57-1.404-0.872l-14.298-8.255
			c6.386-10.521,16.209-18.722,27.912-23.052c5.198,4.49,11.972,7.206,19.381,7.206c7.311,0,14-2.645,19.171-7.029
			C93.948,90.575,103.663,98.81,109.96,109.329z"/>
		<circle fill-rule="evenodd" clip-rule="evenodd" fill="#34C8FF" cx="63.178" cy="63.522" r="22.764"/>
	</g>
	<g id="Text">
		<path fill-rule="evenodd" clip-rule="evenodd" fill="#384168" d="M155.25,103.573V21.641h29.638
			c6.485,0,12.054,2.136,16.708,6.409c4.653,4.195,6.981,9.497,6.981,15.906c0,8.086-3.701,13.77-11.101,17.05v0.458
			c4.196,1.373,7.552,3.757,10.07,7.153c2.516,3.394,3.775,7.266,3.775,11.615c0,6.712-2.442,12.281-7.323,16.706
			c-4.731,4.426-10.566,6.636-17.507,6.636H155.25L155.25,103.573z M165.779,31.711v25.06h19.109c3.738,0,6.867-1.258,9.383-3.776
			c2.518-2.593,3.777-5.531,3.777-8.811c0-3.205-1.22-6.104-3.662-8.697c-2.442-2.518-5.456-3.776-9.041-3.776H165.779
			L165.779,31.711z M165.779,66.612v26.893h21.169c3.814,0,7.057-1.335,9.728-4.006c2.592-2.669,3.891-5.836,3.891-9.497
			c0-3.585-1.335-6.715-4.006-9.384c-2.669-2.67-6.027-4.006-10.068-4.006H165.779z"/>
		<path fill-rule="evenodd" clip-rule="evenodd" fill="#384168" d="M246.569,105.406c-8.24,0-15.031-2.823-20.37-8.469
			c-5.34-5.646-8.009-12.778-8.009-21.398c0-8.545,2.592-15.66,7.78-21.342c5.188-5.683,11.825-8.525,19.912-8.525
			c8.316,0,14.934,2.689,19.854,8.067c4.92,5.378,7.381,12.912,7.381,22.601l-0.115,1.144h-44.056
			c0.153,5.493,1.983,9.918,5.493,13.274c3.509,3.356,7.705,5.036,12.586,5.036c6.714,0,11.978-3.358,15.792-10.07L272.2,90.3
			c-2.516,4.73-6.008,8.43-10.471,11.101C257.267,104.069,252.212,105.406,246.569,105.406L246.569,105.406z M229.747,68.788h32.154
			c-0.304-3.892-1.887-7.115-4.748-9.671c-2.861-2.555-6.694-3.833-11.501-3.833c-3.967,0-7.381,1.221-10.242,3.662
			S230.661,64.667,229.747,68.788z"/>
		<path fill-rule="evenodd" clip-rule="evenodd" fill="#384168" d="M325.051,88.011c0,4.884-2.137,9.003-6.409,12.359
			c-4.271,3.356-9.649,5.036-16.135,5.036c-5.645,0-10.603-1.472-14.875-4.406c-4.273-2.938-7.324-6.81-9.154-11.615l9.383-4.006
			c1.373,3.358,3.376,5.972,6.008,7.839c2.632,1.87,5.511,2.804,8.638,2.804c3.358,0,6.161-0.725,8.411-2.174
			c2.252-1.449,3.377-3.166,3.377-5.149c0-3.586-2.748-6.218-8.24-7.896l-9.612-2.402c-10.909-2.747-16.364-8.011-16.364-15.793
			c0-5.11,2.079-9.212,6.238-12.301c4.157-3.09,9.478-4.635,15.963-4.635c4.958,0,9.439,1.183,13.445,3.547
			c4.004,2.365,6.807,5.531,8.41,9.499l-9.384,3.89c-1.067-2.364-2.803-4.215-5.206-5.55c-2.403-1.334-5.092-2.002-8.068-2.002
			c-2.746,0-5.206,0.687-7.379,2.06c-2.175,1.374-3.263,3.051-3.263,5.035c0,3.204,3.016,5.493,9.041,6.867l8.469,2.174
			C319.482,73.936,325.051,79.544,325.051,88.011z"/>
		<path fill-rule="evenodd" clip-rule="evenodd" fill="#384168" d="M355.43,104.49c-4.578,0-8.372-1.412-11.386-4.233
			c-3.013-2.824-4.559-6.752-4.636-11.788V57.115h-9.841v-9.613h9.841V30.337h10.529v17.165h13.732v9.613h-13.732v27.921
			c0,3.738,0.725,6.274,2.174,7.61c1.45,1.335,3.09,2.002,4.92,2.002c0.84,0,1.66-0.095,2.461-0.285
			c0.801-0.191,1.544-0.439,2.231-0.745l3.318,9.384C362.295,103.994,359.092,104.49,355.43,104.49z"/>
		<path fill-rule="evenodd" clip-rule="evenodd" fill="#384168" d="M387.662,70.39v33.184h-10.528V21.641h27.922
			c7.095,0,13.122,2.365,18.08,7.095c5.036,4.729,7.552,10.489,7.552,17.278c0,6.943-2.516,12.74-7.552,17.395
			c-4.882,4.655-10.909,6.981-18.08,6.981H387.662L387.662,70.39z M387.662,31.711v28.608h17.623c4.194,0,7.666-1.412,10.413-4.234
			c2.822-2.823,4.233-6.179,4.233-10.07c0-3.813-1.411-7.132-4.233-9.955c-2.747-2.899-6.219-4.348-10.413-4.348H387.662z"/>
		<path fill-rule="evenodd" clip-rule="evenodd" fill="#384168" d="M458.867,105.406c-8.239,0-15.028-2.823-20.368-8.469
			s-8.011-12.778-8.011-21.398c0-8.545,2.593-15.66,7.782-21.342c5.187-5.683,11.824-8.525,19.909-8.525
			c8.316,0,14.934,2.689,19.854,8.067s7.381,12.912,7.381,22.601l-0.113,1.144h-44.058c0.153,5.493,1.983,9.918,5.493,13.274
			c3.511,3.356,7.705,5.036,12.588,5.036c6.713,0,11.977-3.358,15.793-10.07l9.383,4.576c-2.519,4.73-6.009,8.43-10.471,11.101
			C469.567,104.069,464.513,105.406,458.867,105.406L458.867,105.406z M442.045,68.788h32.156c-0.306-3.892-1.889-7.115-4.749-9.671
			c-2.861-2.555-6.694-3.833-11.499-3.833c-3.968,0-7.381,1.221-10.242,3.662C444.851,61.386,442.962,64.667,442.045,68.788z"/>
		<path fill-rule="evenodd" clip-rule="evenodd" fill="#384168" d="M520.775,105.406c-8.24,0-15.029-2.823-20.369-8.469
			c-5.339-5.646-8.01-12.778-8.01-21.398c0-8.545,2.594-15.66,7.781-21.342c5.187-5.683,11.825-8.525,19.91-8.525
			c8.315,0,14.936,2.689,19.854,8.067c4.92,5.378,7.381,12.912,7.381,22.601l-0.114,1.144h-44.057
			c0.152,5.493,1.983,9.918,5.492,13.274c3.511,3.356,7.707,5.036,12.589,5.036c6.714,0,11.978-3.358,15.792-10.07l9.383,4.576
			c-2.518,4.73-6.008,8.43-10.471,11.101C531.475,104.069,526.42,105.406,520.775,105.406L520.775,105.406z M503.953,68.788h32.156
			c-0.306-3.892-1.889-7.115-4.75-9.671c-2.86-2.555-6.693-3.833-11.499-3.833c-3.967,0-7.381,1.221-10.242,3.662
			C506.758,61.386,504.869,64.667,503.953,68.788z"/>
		<path fill-rule="evenodd" clip-rule="evenodd" fill="#384168" d="M567.464,103.573h-10.528V47.502h10.07v9.155h0.458
			c1.067-2.976,3.262-5.512,6.58-7.61c3.317-2.098,6.579-3.147,9.784-3.147c3.051,0,5.646,0.458,7.781,1.374l-3.205,10.184
			c-1.297-0.534-3.356-0.801-6.178-0.801c-3.968,0-7.421,1.602-10.357,4.806c-2.938,3.204-4.405,6.943-4.405,11.215V103.573z"/>
		<path fill-rule="evenodd" clip-rule="evenodd" fill="#384168" d="M639.098,88.011c0,4.884-2.137,9.003-6.407,12.359
			c-4.272,3.356-9.651,5.036-16.135,5.036c-5.646,0-10.604-1.472-14.878-4.406c-4.271-2.938-7.323-6.81-9.153-11.615l9.383-4.006
			c1.375,3.358,3.377,5.972,6.009,7.839c2.632,1.87,5.513,2.804,8.64,2.804c3.356,0,6.159-0.725,8.411-2.174
			c2.25-1.449,3.375-3.166,3.375-5.149c0-3.586-2.745-6.218-8.24-7.896l-9.612-2.402c-10.908-2.747-16.363-8.011-16.363-15.793
			c0-5.11,2.08-9.212,6.237-12.301c4.157-3.09,9.479-4.635,15.964-4.635c4.958,0,9.438,1.183,13.445,3.547
			c4.004,2.365,6.809,5.531,8.411,9.499l-9.384,3.89c-1.069-2.364-2.803-4.215-5.207-5.55c-2.403-1.334-5.093-2.002-8.067-2.002
			c-2.747,0-5.207,0.687-7.381,2.06c-2.173,1.374-3.261,3.051-3.261,5.035c0,3.204,3.014,5.493,9.04,6.867l8.467,2.174
			C633.528,73.936,639.098,79.544,639.098,88.011z"/>
	</g>
</g>
</svg>
